<svg id="svg" version="1.1" xmlns="http://www.w3.org/2000/svg" xmlns:xlink="http://www.w3.org/1999/xlink" width="400" height="400" viewBox="0, 0, 400,400"><g id="svgg"><path id="path0" d="M68.404 77.542 C 67.643 77.950,66.476 78.957,65.810 79.779 L 64.600 81.274 64.600 219.215 L 64.600 357.156 65.963 358.562 C 68.690 361.376,65.986 361.200,106.600 361.200 C 147.214 361.200,144.510 361.375,147.237 358.562 L 148.600 357.156 148.800 306.478 L 149.000 255.800 149.909 254.339 C 151.080 252.455,153.719 250.077,155.431 249.361 C 157.408 248.535,193.392 248.535,195.369 249.361 C 197.081 250.077,199.720 252.455,200.891 254.339 C 201.796 255.793,201.801 255.895,202.000 275.063 L 202.200 294.327 203.410 295.821 C 205.902 298.899,205.159 298.800,225.707 298.800 C 240.521 298.800,244.283 298.907,245.369 299.361 C 247.081 300.077,249.720 302.455,250.891 304.339 L 251.800 305.800 252.000 331.478 L 252.200 357.156 253.563 358.563 C 256.290 361.375,253.587 361.200,294.200 361.200 C 334.814 361.200,332.110 361.375,334.837 358.562 L 336.200 357.156 336.305 319.678 C 336.423 277.549,336.650 280.824,333.421 278.210 L 331.926 277.000 306.263 276.800 L 280.600 276.600 278.800 275.538 C 273.774 272.573,274.000 274.048,274.000 244.200 C 274.000 216.169,273.915 217.174,276.520 214.474 C 279.649 211.230,278.256 211.424,300.063 211.200 L 319.527 211.000 321.063 209.772 C 324.234 207.237,324.020 210.342,323.904 168.537 L 323.800 131.274 322.590 129.779 C 320.096 126.698,320.874 126.801,300.006 126.791 C 272.229 126.778,274.284 128.820,274.000 100.937 L 273.800 81.273 272.590 79.779 C 269.919 76.480,281.033 76.800,169.200 76.800 C 73.137 76.800,69.741 76.825,68.404 77.542 M270.291 80.509 L 271.400 81.617 271.600 101.709 C 271.893 131.154,269.646 128.907,299.091 129.200 L 319.183 129.400 320.291 130.509 L 321.400 131.618 321.516 168.109 C 321.580 188.179,321.525 205.194,321.394 205.919 C 320.873 208.811,320.993 208.795,299.600 208.813 C 269.261 208.838,271.600 205.881,271.600 244.200 C 271.600 273.099,271.578 272.828,274.182 275.870 C 276.958 279.113,275.660 278.975,305.291 279.200 L 331.582 279.400 332.691 280.509 L 333.800 281.618 333.916 318.109 C 333.980 338.179,333.925 355.194,333.794 355.919 C 333.245 358.967,335.586 358.797,294.200 358.797 C 255.064 358.797,256.124 358.842,254.714 357.106 C 254.667 357.048,254.532 345.120,254.414 330.600 C 254.113 293.496,256.710 296.702,226.709 296.400 L 206.817 296.200 205.709 295.091 L 204.600 293.983 204.400 274.091 C 204.102 244.437,206.383 246.600,175.400 246.600 C 151.791 246.600,152.343 246.540,149.441 249.441 C 146.380 252.502,146.625 247.989,146.393 305.600 C 146.278 333.870,146.143 357.048,146.093 357.106 C 144.569 358.849,145.781 358.797,106.600 358.797 C 65.213 358.797,67.552 358.967,67.008 355.919 C 66.233 351.573,67.010 81.673,67.800 80.795 C 68.240 80.306,68.960 79.758,69.400 79.577 C 69.840 79.396,114.971 79.282,169.691 79.324 L 269.182 79.400 270.291 80.509 M81.475 88.406 C 80.131 88.810,77.001 91.302,76.300 92.527 C 75.921 93.189,75.749 99.506,75.591 118.600 L 75.383 143.800 74.197 148.200 L 73.011 152.600 72.901 248.772 L 72.792 344.944 73.948 347.415 C 76.696 353.287,76.206 353.200,106.579 353.200 C 136.726 353.200,136.762 353.194,139.665 347.299 L 140.600 345.400 140.800 294.200 L 141.000 243.000 141.900 241.315 C 143.656 238.031,143.739 238.000,150.902 238.000 C 154.488 238.000,157.587 238.179,158.021 238.411 C 161.590 240.321,164.023 240.525,186.200 240.768 L 207.400 241.000 209.425 242.069 C 212.659 243.776,212.651 243.749,211.346 248.692 C 209.868 254.288,209.349 279.833,210.634 283.704 C 212.872 290.440,218.594 292.011,229.199 288.800 C 231.370 288.143,231.768 288.130,233.496 288.660 C 238.892 290.317,242.536 290.787,250.027 290.794 C 255.427 290.798,258.003 290.963,259.462 291.396 C 263.050 292.462,262.762 290.157,262.888 318.880 L 263.000 344.322 264.235 346.026 C 264.914 346.964,266.237 348.286,267.174 348.965 L 268.879 350.200 294.174 350.200 L 319.468 350.200 321.102 349.068 C 322.001 348.445,323.245 347.201,323.868 346.302 L 325.000 344.668 325.000 319.003 L 325.000 293.338 323.945 291.954 C 323.364 291.193,322.120 290.037,321.179 289.385 L 319.469 288.200 294.048 288.088 C 263.548 287.955,266.790 288.893,265.426 279.800 C 265.097 277.600,264.419 274.540,263.920 273.000 C 262.607 268.940,262.313 245.165,263.536 241.852 C 265.846 235.592,266.029 230.181,264.145 223.800 C 263.198 220.593,263.050 219.240,262.787 211.400 C 262.390 199.544,263.562 200.748,252.200 200.518 C 246.016 200.393,243.382 200.188,242.216 199.744 C 234.414 196.767,216.851 196.768,208.533 199.745 C 207.058 200.273,206.643 200.273,204.933 199.748 C 194.609 196.579,167.383 196.578,158.529 199.746 C 157.010 200.290,156.643 200.279,154.490 199.627 C 153.188 199.233,150.520 198.610,148.561 198.243 C 140.341 196.703,141.000 199.262,141.000 168.908 L 141.000 143.615 142.308 142.308 L 143.615 141.000 200.108 140.878 C 259.059 140.750,259.630 140.765,261.776 142.452 L 262.800 143.258 262.800 150.180 C 262.800 155.533,262.659 157.439,262.179 158.589 C 259.845 164.175,259.595 170.609,261.462 177.000 C 262.394 180.189,262.548 181.606,262.811 189.400 C 263.210 201.251,261.947 199.987,273.800 200.396 C 281.690 200.669,282.993 200.814,286.400 201.803 C 289.879 202.813,290.919 202.922,298.714 203.093 L 307.228 203.280 309.404 202.216 C 312.040 200.926,314.148 198.566,315.027 195.920 C 316.186 192.430,315.651 178.469,314.179 173.800 C 313.052 170.227,313.042 170.100,312.822 156.936 L 312.600 143.673 311.362 142.136 C 310.681 141.291,309.361 140.060,308.428 139.400 L 306.732 138.200 287.685 138.089 C 266.500 137.965,267.791 138.140,266.452 135.200 C 265.919 134.029,265.774 131.252,265.569 118.200 C 265.230 96.689,263.681 91.366,256.942 88.550 C 255.427 87.917,83.574 87.776,81.475 88.406 M256.400 100.512 C 256.960 100.792,258.016 102.154,258.800 103.606 L 260.200 106.200 260.200 119.000 L 260.200 131.800 259.241 133.145 C 257.380 135.755,261.136 135.600,199.557 135.600 L 143.488 135.600 141.767 136.459 C 139.709 137.487,137.590 139.609,136.439 141.794 C 135.612 143.365,135.600 143.758,135.604 168.994 L 135.608 194.600 136.555 196.600 C 138.055 199.767,139.467 200.883,145.600 203.748 C 147.950 204.845,149.344 205.891,152.037 208.574 C 156.576 213.098,156.752 213.100,161.111 208.667 C 162.914 206.833,165.336 204.808,166.494 204.167 L 168.600 203.000 181.600 203.000 L 194.600 203.000 196.711 204.170 C 197.873 204.813,200.123 206.673,201.711 208.302 C 206.932 213.655,212.400 214.038,212.400 209.049 C 212.400 205.213,216.613 203.046,224.426 202.865 C 232.696 202.673,235.559 203.777,239.683 208.748 C 240.719 209.996,242.310 211.464,243.218 212.009 C 246.510 213.984,248.224 215.465,249.474 217.413 C 252.014 221.374,253.050 222.598,255.319 224.322 C 259.675 227.634,260.776 231.118,258.689 234.993 C 256.948 238.226,256.515 238.387,249.560 238.394 C 238.645 238.405,235.031 244.760,243.186 249.600 C 249.848 253.554,250.569 254.795,250.711 262.533 C 250.864 270.861,250.970 271.127,255.482 274.460 C 257.117 275.668,257.937 276.669,258.910 278.641 L 260.188 281.234 259.394 282.717 C 258.016 285.290,256.738 285.653,249.536 285.518 L 243.273 285.400 240.948 283.800 C 237.766 281.611,237.613 281.193,237.606 274.680 C 237.599 268.391,237.429 267.850,234.640 265.279 C 232.205 263.035,230.996 263.034,228.565 265.275 C 225.870 267.759,225.821 267.924,225.600 275.139 L 225.400 281.677 224.200 282.675 C 220.897 285.421,218.667 285.583,216.680 283.223 C 215.201 281.464,215.137 280.761,215.276 267.800 L 215.400 256.200 216.571 254.087 C 217.718 252.017,218.445 251.212,221.926 248.169 C 226.963 243.765,224.124 239.202,215.000 237.040 C 213.460 236.675,211.840 236.260,211.400 236.118 C 210.960 235.976,201.150 235.756,189.600 235.630 L 168.600 235.400 166.487 234.229 C 165.325 233.586,163.795 232.426,163.087 231.653 C 162.379 230.880,160.794 229.201,159.564 227.923 L 157.328 225.600 150.611 225.600 C 141.274 225.600,139.061 227.263,137.040 235.800 C 136.675 237.340,136.253 238.960,136.102 239.400 C 135.951 239.840,135.731 263.542,135.614 292.071 C 135.401 343.670,135.396 343.947,134.575 345.046 C 132.367 348.004,134.435 347.800,106.600 347.800 C 78.765 347.800,80.833 348.004,78.625 345.046 L 77.800 343.941 77.697 250.923 C 77.588 151.688,77.495 156.245,79.705 152.937 C 81.577 150.137,82.585 150.132,85.364 152.911 C 88.099 155.646,88.395 156.716,88.398 163.856 L 88.400 169.513 89.706 171.408 C 90.642 172.766,91.806 173.746,93.806 174.861 C 101.016 178.878,100.795 177.852,100.798 207.320 C 100.800 234.472,100.605 232.612,103.760 235.521 C 106.529 238.073,109.716 236.908,111.954 232.526 C 112.274 231.899,112.400 219.467,112.400 188.524 C 112.400 161.389,112.546 144.885,112.794 144.020 C 113.321 142.185,115.626 139.874,118.800 138.001 C 124.379 134.709,125.200 133.046,125.200 125.039 C 125.200 117.299,125.871 115.922,131.153 112.818 C 134.169 111.046,136.474 108.781,138.499 105.600 C 140.224 102.892,142.299 100.877,143.837 100.417 C 145.815 99.825,255.211 99.918,256.400 100.512 M96.468 114.057 C 100.816 117.119,101.164 120.257,97.501 123.392 C 94.687 125.801,92.671 125.581,90.033 122.576 C 87.622 119.831,87.630 118.561,90.073 115.778 C 92.689 112.799,94.130 112.411,96.468 114.057 M153.676 146.988 C 147.017 149.080,146.291 151.440,146.470 170.400 C 146.630 187.372,147.161 189.063,152.965 191.090 C 156.109 192.187,244.691 192.187,247.835 191.090 C 253.764 189.019,254.200 187.521,254.200 169.200 C 254.200 151.057,253.924 150.023,248.400 147.441 C 246.099 146.366,157.014 145.940,153.676 146.988 M245.389 149.369 C 251.232 151.811,252.000 154.116,252.000 169.200 C 252.000 184.284,251.232 186.589,245.389 189.031 C 243.349 189.883,157.451 189.883,155.411 189.031 C 153.475 188.222,150.583 185.430,149.620 183.441 C 148.555 181.241,148.346 157.861,149.369 155.411 C 150.170 153.494,152.939 150.613,154.923 149.631 C 157.117 148.545,242.822 148.297,245.389 149.369 M283.661 163.815 C 285.400 165.038,286.226 166.052,289.329 170.773 C 291.928 174.728,293.096 175.200,300.289 175.200 C 303.506 175.200,306.395 175.383,306.828 175.615 C 310.924 177.807,311.905 192.810,308.188 196.411 L 306.754 197.800 300.042 197.800 L 293.329 197.800 291.063 196.295 C 289.817 195.467,288.303 194.208,287.699 193.498 C 285.553 190.973,283.914 189.585,281.228 188.016 C 278.060 186.166,276.447 184.462,274.830 181.259 C 273.728 179.076,272.359 177.609,269.093 175.111 C 264.846 171.861,265.208 164.698,269.716 162.788 C 272.041 161.802,281.824 162.523,283.661 163.815 M214.182 214.182 C 210.740 217.624,216.424 226.478,220.657 224.268 C 223.043 223.022,225.028 220.163,224.624 218.553 C 223.587 214.421,216.789 211.575,214.182 214.182 " stroke="none" fill="#d484e4" fill-rule="evenodd"></path><path id="path1" d="M66.422 74.852 C 63.760 76.182,62.002 78.307,61.169 81.200 C 60.901 82.132,60.805 128.579,60.883 220.062 L 61.000 357.525 62.600 359.851 C 63.860 361.683,64.738 362.456,66.735 363.488 L 69.270 364.800 106.600 364.800 L 143.930 364.800 146.465 363.488 C 148.461 362.456,149.340 361.683,150.600 359.851 L 152.200 357.525 152.400 306.992 C 152.625 250.038,152.298 255.545,155.596 253.300 L 156.918 252.400 175.400 252.400 L 193.882 252.400 195.231 253.310 C 195.974 253.810,196.990 254.826,197.490 255.569 L 198.400 256.918 198.409 275.359 C 198.419 297.614,198.561 298.219,204.458 301.166 L 206.928 302.400 225.405 302.400 L 243.882 302.400 245.204 303.300 C 248.414 305.485,248.176 303.340,248.400 331.992 L 248.600 357.526 250.200 359.851 C 251.460 361.683,252.339 362.456,254.335 363.488 L 256.870 364.800 294.200 364.800 L 331.530 364.800 334.065 363.488 C 336.061 362.456,336.940 361.683,338.200 359.851 L 339.800 357.525 339.919 320.063 C 339.997 295.590,339.898 282.115,339.633 281.200 C 338.794 278.303,337.038 276.182,334.378 274.852 L 331.872 273.600 306.795 273.600 L 281.718 273.600 280.369 272.690 C 279.626 272.190,278.610 271.174,278.110 270.431 L 277.200 269.082 277.200 244.200 L 277.200 219.318 278.110 217.969 C 278.610 217.226,279.626 216.210,280.369 215.710 L 281.718 214.800 300.359 214.796 L 319.000 214.792 321.003 213.859 C 323.287 212.796,325.373 210.615,326.464 208.149 C 327.180 206.530,327.207 204.846,327.106 168.729 L 327.000 131.000 326.063 129.200 C 324.751 126.680,323.707 125.639,321.400 124.551 L 319.400 123.608 300.559 123.604 L 281.718 123.600 280.396 122.700 C 277.240 120.552,277.424 121.841,277.200 100.271 C 276.962 77.375,276.912 77.150,271.400 74.551 L 269.400 73.608 169.164 73.604 L 68.928 73.600 66.422 74.852 M269.996 77.542 C 270.757 77.950,271.924 78.957,272.590 79.779 L 273.800 81.273 274.000 100.937 C 274.284 128.820,272.229 126.778,300.006 126.791 C 320.874 126.801,320.096 126.698,322.590 129.779 L 323.800 131.274 323.904 168.537 C 324.020 210.342,324.234 207.237,321.063 209.772 L 319.527 211.000 300.063 211.200 C 271.598 211.492,274.000 208.452,274.000 244.200 C 274.000 274.048,273.774 272.573,278.800 275.538 L 280.600 276.600 306.263 276.800 L 331.926 277.000 333.421 278.210 C 336.650 280.824,336.423 277.549,336.305 319.678 L 336.200 357.156 334.837 358.562 C 332.110 361.375,334.814 361.200,294.200 361.200 C 253.587 361.200,256.290 361.375,253.563 358.563 L 252.200 357.156 252.000 331.478 L 251.800 305.800 250.891 304.339 C 249.720 302.455,247.081 300.077,245.369 299.361 C 244.283 298.907,240.521 298.800,225.707 298.800 C 205.159 298.800,205.902 298.899,203.410 295.821 L 202.200 294.327 202.000 275.063 C 201.801 255.895,201.796 255.793,200.891 254.339 C 199.720 252.455,197.081 250.077,195.369 249.361 C 193.392 248.535,157.408 248.535,155.431 249.361 C 153.719 250.077,151.080 252.455,149.909 254.339 L 149.000 255.800 148.800 306.478 L 148.600 357.156 147.237 358.562 C 144.510 361.375,147.214 361.200,106.600 361.200 C 65.986 361.200,68.690 361.376,65.963 358.562 L 64.600 357.156 64.600 219.215 L 64.600 81.274 65.810 79.779 C 68.481 76.480,57.366 76.800,169.200 76.800 C 265.263 76.800,268.659 76.825,269.996 77.542 M143.837 100.417 C 142.299 100.877,140.224 102.892,138.499 105.600 C 136.474 108.781,134.169 111.046,131.153 112.818 C 125.871 115.922,125.200 117.299,125.200 125.039 C 125.200 133.046,124.379 134.709,118.800 138.001 C 115.626 139.874,113.321 142.185,112.794 144.020 C 112.546 144.885,112.400 161.389,112.400 188.524 C 112.400 219.467,112.274 231.899,111.954 232.526 C 109.716 236.908,106.529 238.073,103.760 235.521 C 100.605 232.612,100.800 234.472,100.798 207.320 C 100.795 177.852,101.016 178.878,93.806 174.861 C 91.806 173.746,90.642 172.766,89.706 171.408 L 88.400 169.513 88.398 163.856 C 88.395 156.716,88.099 155.646,85.364 152.911 C 82.585 150.132,81.577 150.137,79.705 152.937 C 77.495 156.245,77.588 151.688,77.697 250.923 L 77.800 343.941 78.625 345.046 C 80.833 348.004,78.765 347.800,106.600 347.800 C 134.435 347.800,132.367 348.004,134.575 345.046 C 135.396 343.947,135.401 343.670,135.614 292.071 C 135.731 263.542,135.951 239.840,136.102 239.400 C 136.253 238.960,136.675 237.340,137.040 235.800 C 139.061 227.263,141.274 225.600,150.611 225.600 L 157.328 225.600 159.564 227.923 C 160.794 229.201,162.379 230.880,163.087 231.653 C 163.795 232.426,165.325 233.586,166.487 234.229 L 168.600 235.400 189.600 235.630 C 201.150 235.756,210.960 235.976,211.400 236.118 C 211.840 236.260,213.460 236.675,215.000 237.040 C 224.124 239.202,226.963 243.765,221.926 248.169 C 218.445 251.212,217.718 252.017,216.571 254.087 L 215.400 256.200 215.276 267.800 C 215.137 280.761,215.201 281.464,216.680 283.223 C 218.667 285.583,220.897 285.421,224.200 282.675 L 225.400 281.677 225.600 275.139 C 225.821 267.924,225.870 267.759,228.565 265.275 C 230.996 263.034,232.205 263.035,234.640 265.279 C 237.429 267.850,237.599 268.391,237.606 274.680 C 237.613 281.193,237.766 281.611,240.948 283.800 L 243.273 285.400 249.536 285.518 C 256.738 285.653,258.016 285.290,259.394 282.717 L 260.188 281.234 258.910 278.641 C 257.937 276.669,257.117 275.668,255.482 274.460 C 250.970 271.127,250.864 270.861,250.711 262.533 C 250.569 254.795,249.848 253.554,243.186 249.600 C 235.031 244.760,238.645 238.405,249.560 238.394 C 256.515 238.387,256.948 238.226,258.689 234.993 C 260.776 231.118,259.675 227.634,255.319 224.322 C 253.050 222.598,252.014 221.374,249.474 217.413 C 248.224 215.465,246.510 213.984,243.218 212.009 C 242.310 211.464,240.719 209.996,239.683 208.748 C 235.559 203.777,232.696 202.673,224.426 202.865 C 216.613 203.046,212.400 205.213,212.400 209.049 C 212.400 214.038,206.932 213.655,201.711 208.302 C 200.123 206.673,197.873 204.813,196.711 204.170 L 194.600 203.000 181.600 203.000 L 168.600 203.000 166.494 204.167 C 165.336 204.808,162.914 206.833,161.111 208.667 C 156.752 213.100,156.576 213.098,152.037 208.574 C 149.344 205.891,147.950 204.845,145.600 203.748 C 139.467 200.883,138.055 199.767,136.555 196.600 L 135.608 194.600 135.604 168.994 C 135.600 143.758,135.612 143.365,136.439 141.794 C 137.590 139.609,139.709 137.487,141.767 136.459 L 143.488 135.600 199.557 135.600 C 261.136 135.600,257.380 135.755,259.241 133.145 L 260.200 131.800 260.200 119.000 L 260.200 106.200 258.800 103.606 C 258.016 102.154,256.960 100.792,256.400 100.512 C 255.211 99.918,145.815 99.825,143.837 100.417 M92.599 113.538 C 87.244 116.794,87.194 121.908,92.489 124.646 C 94.651 125.764,98.268 123.773,99.751 120.647 C 101.348 117.281,95.690 111.658,92.599 113.538 M154.923 149.631 C 152.939 150.613,150.170 153.494,149.369 155.411 C 148.346 157.861,148.555 181.241,149.620 183.441 C 150.583 185.430,153.475 188.222,155.411 189.031 C 157.451 189.883,243.349 189.883,245.389 189.031 C 251.232 186.589,252.000 184.284,252.000 169.200 C 252.000 154.116,251.232 151.811,245.389 149.369 C 242.822 148.297,157.117 148.545,154.923 149.631 M245.231 153.310 C 248.405 155.448,248.400 155.424,248.400 169.200 C 248.400 182.976,248.405 182.952,245.231 185.090 L 243.882 186.000 200.400 186.000 L 156.918 186.000 155.569 185.090 C 152.395 182.952,152.400 182.976,152.400 169.200 C 152.400 155.424,152.395 155.448,155.569 153.310 L 156.918 152.400 200.400 152.400 L 243.882 152.400 245.231 153.310 M269.716 162.788 C 265.208 164.698,264.846 171.861,269.093 175.111 C 272.359 177.609,273.728 179.076,274.830 181.259 C 276.447 184.462,278.060 186.166,281.228 188.016 C 283.914 189.585,285.553 190.973,287.699 193.498 C 288.303 194.208,289.817 195.467,291.063 196.295 L 293.329 197.800 300.042 197.800 L 306.754 197.800 308.188 196.411 C 311.905 192.810,310.924 177.807,306.828 175.615 C 306.395 175.383,303.506 175.200,300.289 175.200 C 293.096 175.200,291.928 174.728,289.329 170.773 C 284.118 162.844,283.781 162.630,276.266 162.507 C 273.150 162.455,270.202 162.582,269.716 162.788 M220.350 213.774 C 225.577 216.477,225.727 221.621,220.657 224.268 C 216.424 226.478,210.740 217.624,214.182 214.182 C 215.340 213.024,218.496 212.815,220.350 213.774 " stroke="none" fill="#843c94" fill-rule="evenodd"></path><path id="path2" d="M69.400 79.577 C 68.960 79.758,68.240 80.306,67.800 80.795 C 67.010 81.673,66.233 351.573,67.008 355.919 C 67.552 358.967,65.213 358.797,106.600 358.797 C 145.781 358.797,144.569 358.849,146.093 357.106 C 146.143 357.048,146.278 333.870,146.393 305.600 C 146.625 247.989,146.380 252.502,149.441 249.441 C 152.343 246.540,151.791 246.600,175.400 246.600 C 206.383 246.600,204.102 244.437,204.400 274.091 L 204.600 293.983 205.709 295.091 L 206.817 296.200 226.709 296.400 C 256.710 296.702,254.113 293.496,254.414 330.600 C 254.532 345.120,254.667 357.048,254.714 357.106 C 256.124 358.842,255.064 358.797,294.200 358.797 C 335.586 358.797,333.245 358.967,333.794 355.919 C 333.925 355.194,333.980 338.179,333.916 318.109 L 333.800 281.618 332.691 280.509 L 331.582 279.400 305.291 279.200 C 267.978 278.916,271.600 282.679,271.600 244.200 C 271.600 205.881,269.261 208.838,299.600 208.813 C 320.993 208.795,320.873 208.811,321.394 205.919 C 321.525 205.194,321.580 188.179,321.516 168.109 L 321.400 131.618 320.291 130.509 L 319.183 129.400 299.091 129.200 C 276.580 128.976,276.791 129.003,274.226 125.961 C 271.752 123.026,271.818 123.643,271.600 101.709 L 271.400 81.617 270.291 80.509 L 269.182 79.400 169.691 79.324 C 114.971 79.282,69.840 79.396,69.400 79.577 M256.942 88.550 C 263.681 91.366,265.230 96.689,265.569 118.200 C 265.774 131.252,265.919 134.029,266.452 135.200 C 267.791 138.140,266.500 137.965,287.685 138.089 L 306.732 138.200 308.428 139.400 C 309.361 140.060,310.681 141.291,311.362 142.136 L 312.600 143.673 312.822 156.936 C 313.042 170.100,313.052 170.227,314.179 173.800 C 315.651 178.469,316.186 192.430,315.027 195.920 C 314.148 198.566,312.040 200.926,309.404 202.216 L 307.228 203.280 298.714 203.093 C 290.919 202.922,289.879 202.813,286.400 201.803 C 282.993 200.814,281.690 200.669,273.800 200.396 C 261.947 199.987,263.210 201.251,262.811 189.400 C 262.548 181.606,262.394 180.189,261.462 177.000 C 259.595 170.609,259.845 164.175,262.179 158.589 C 262.659 157.439,262.800 155.533,262.800 150.180 L 262.800 143.258 261.776 142.452 C 259.630 140.765,259.059 140.750,200.108 140.878 L 143.615 141.000 142.308 142.308 L 141.000 143.615 141.000 168.908 C 141.000 199.262,140.341 196.703,148.561 198.243 C 150.520 198.610,153.188 199.233,154.490 199.627 C 156.643 200.279,157.010 200.290,158.529 199.746 C 163.696 197.897,166.775 197.613,181.600 197.613 C 196.441 197.613,198.627 197.813,204.933 199.748 C 206.643 200.273,207.058 200.273,208.533 199.745 C 216.851 196.768,234.414 196.767,242.216 199.744 C 243.382 200.188,246.016 200.393,252.200 200.518 C 263.562 200.748,262.390 199.544,262.787 211.400 C 263.050 219.240,263.198 220.593,264.145 223.800 C 266.029 230.181,265.846 235.592,263.536 241.852 C 262.313 245.165,262.607 268.940,263.920 273.000 C 264.419 274.540,265.097 277.600,265.426 279.800 C 266.790 288.893,263.548 287.955,294.048 288.088 L 319.469 288.200 321.179 289.385 C 322.120 290.037,323.364 291.193,323.945 291.954 L 325.000 293.338 325.000 319.003 L 325.000 344.668 323.868 346.302 C 323.245 347.201,322.001 348.445,321.102 349.068 L 319.468 350.200 294.174 350.200 L 268.879 350.200 267.174 348.965 C 266.237 348.286,264.914 346.964,264.235 346.026 L 263.000 344.322 262.888 318.880 C 262.762 290.157,263.050 292.462,259.462 291.396 C 258.003 290.963,255.427 290.798,250.027 290.794 C 242.536 290.787,238.892 290.317,233.496 288.660 C 231.768 288.130,231.370 288.143,229.199 288.800 C 218.594 292.011,212.872 290.440,210.634 283.704 C 209.349 279.833,209.868 254.288,211.346 248.692 C 212.651 243.749,212.659 243.776,209.425 242.069 L 207.400 241.000 186.200 240.768 C 164.023 240.525,161.590 240.321,158.021 238.411 C 157.587 238.179,154.488 238.000,150.902 238.000 C 143.739 238.000,143.656 238.031,141.900 241.315 L 141.000 243.000 140.800 294.200 L 140.600 345.400 139.665 347.299 C 136.762 353.194,136.726 353.200,106.579 353.200 C 76.206 353.200,76.696 353.287,73.948 347.415 L 72.792 344.944 72.901 248.772 L 73.011 152.600 74.197 148.200 L 75.383 143.800 75.591 118.600 C 75.749 99.506,75.921 93.189,76.300 92.527 C 77.001 91.302,80.131 88.810,81.475 88.406 C 83.574 87.776,255.427 87.917,256.942 88.550 M248.400 147.441 C 253.924 150.023,254.200 151.057,254.200 169.200 C 254.200 187.521,253.764 189.019,247.835 191.090 C 244.691 192.187,156.109 192.187,152.965 191.090 C 147.161 189.063,146.630 187.372,146.470 170.400 C 146.291 151.440,147.017 149.080,153.676 146.988 C 157.014 145.940,246.099 146.366,248.400 147.441 " stroke="none" fill="#fcfcfc" fill-rule="evenodd"></path><path id="path3" d="M51.400 42.845 C 44.073 43.451,43.401 44.099,42.935 51.000 C 42.639 55.390,42.494 55.594,39.651 55.625 C 31.735 55.711,31.072 56.355,30.406 64.600 C 29.892 70.957,29.874 367.318,30.387 373.517 C 31.024 381.223,31.936 382.266,38.401 382.685 C 42.716 382.965,42.636 382.880,42.914 387.412 C 43.448 396.091,39.477 395.582,106.600 395.582 C 173.480 395.582,169.752 396.050,170.275 387.576 C 170.566 382.860,170.467 382.966,174.821 382.684 C 183.031 382.152,183.183 381.580,183.194 351.100 L 183.200 333.200 200.400 333.200 L 217.600 333.200 217.607 351.100 C 217.618 381.761,217.737 382.212,225.937 382.699 C 230.310 382.958,230.240 382.887,230.504 387.300 C 231.035 396.182,226.039 395.588,300.200 395.585 C 358.448 395.582,364.792 395.433,367.596 394.002 L 369.200 393.184 370.842 394.022 C 373.337 395.295,395.430 396.331,399.100 395.348 L 400.000 395.107 400.000 375.400 L 400.000 355.693 399.100 355.452 C 396.628 354.790,374.542 355.416,371.723 356.229 L 370.845 356.482 370.683 309.341 C 370.577 278.782,370.375 261.587,370.106 260.457 C 369.233 256.786,368.166 256.158,362.000 255.689 L 358.200 255.400 357.931 251.344 C 357.736 248.404,357.428 246.830,356.812 245.623 L 355.962 243.957 356.787 242.620 C 358.232 240.282,358.382 233.983,358.382 175.400 C 358.382 100.750,359.066 106.262,349.726 105.705 C 345.265 105.439,345.366 105.543,345.080 100.901 C 344.578 92.756,343.604 92.428,319.900 92.409 L 308.400 92.400 308.391 80.900 C 308.372 57.055,308.090 56.224,299.842 55.716 C 295.259 55.434,295.361 55.536,295.092 51.013 C 294.690 44.280,293.718 43.376,286.251 42.796 C 280.236 42.328,57.083 42.375,51.400 42.845 M270.400 70.413 C 280.311 71.456,280.434 71.798,280.685 99.080 C 280.819 113.661,280.997 119.265,281.335 119.545 C 281.612 119.775,289.858 120.005,301.800 120.115 C 329.178 120.369,329.374 120.442,330.417 130.807 C 331.194 138.529,330.722 208.471,329.873 211.400 C 327.965 217.987,326.229 218.382,299.180 218.393 C 286.172 218.398,281.638 218.522,281.280 218.880 C 280.563 219.597,280.589 268.927,281.307 269.522 C 281.645 269.803,290.505 269.994,308.007 270.097 C 331.390 270.235,334.457 270.326,336.600 270.946 C 343.375 272.907,343.200 271.621,343.200 319.377 C 343.200 367.073,343.416 365.547,336.395 367.484 C 332.400 368.586,256.000 368.586,252.005 367.484 C 244.972 365.543,245.088 366.106,244.897 333.009 C 244.803 316.781,244.599 306.840,244.354 306.544 C 244.063 306.194,238.742 306.025,224.080 305.901 C 192.797 305.634,195.167 307.998,194.900 276.800 C 194.790 263.998,194.583 256.823,194.316 256.500 C 193.697 255.752,157.085 255.775,156.463 256.524 C 156.157 256.892,155.992 272.101,155.904 308.024 C 155.753 369.842,156.282 365.418,148.795 367.484 C 144.800 368.586,68.400 368.586,64.405 367.484 C 59.941 366.252,58.846 364.865,58.006 359.378 C 57.193 354.067,57.649 78.234,58.475 75.852 C 59.701 72.316,61.898 71.025,67.736 70.410 C 72.205 69.940,265.923 69.943,270.400 70.413 M156.480 156.480 C 155.794 157.166,155.794 181.234,156.480 181.920 C 157.177 182.617,243.623 182.617,244.320 181.920 C 245.006 181.234,245.006 157.166,244.320 156.480 C 243.623 155.783,157.177 155.783,156.480 156.480 " stroke="none" fill="#040404" fill-rule="evenodd"></path><path id="path4" d="M66.585 73.437 C 64.208 74.281,62.023 76.272,60.952 78.572 L 60.008 80.600 60.004 219.113 L 60.000 357.627 60.964 359.513 C 62.173 361.878,64.076 363.718,66.400 364.769 C 69.225 366.046,143.975 366.046,146.800 364.769 C 149.003 363.772,150.986 361.926,152.135 359.800 L 153.000 358.200 153.200 307.600 C 153.422 251.486,153.192 255.985,155.928 254.128 C 157.580 253.006,193.220 253.006,194.872 254.128 C 197.483 255.900,197.380 255.058,197.600 276.400 C 197.822 297.888,197.699 296.908,200.545 299.935 C 203.511 303.090,202.680 302.976,224.400 303.200 C 245.742 303.420,244.900 303.317,246.672 305.928 C 247.352 306.929,247.413 308.697,247.600 332.600 C 247.825 361.337,247.635 359.587,250.865 362.677 C 254.110 365.782,251.136 365.582,294.200 365.582 C 331.961 365.582,332.630 365.569,334.400 364.769 C 336.816 363.676,338.699 361.820,339.845 359.400 L 340.792 357.400 340.792 319.000 L 340.792 280.600 339.853 278.584 C 339.337 277.475,338.304 276.052,337.557 275.423 C 334.576 272.909,335.827 273.019,307.600 272.800 C 279.132 272.579,280.733 272.732,278.928 270.072 C 277.801 268.413,277.801 219.987,278.928 218.328 C 280.701 215.715,279.836 215.820,301.400 215.600 L 321.000 215.400 322.874 214.298 C 324.843 213.141,325.743 212.092,327.148 209.316 C 328.000 207.632,328.000 207.629,327.996 169.116 L 327.992 130.600 327.054 128.600 C 324.414 122.976,324.685 123.038,301.400 122.800 C 283.302 122.615,281.718 122.544,280.728 121.872 C 278.115 120.099,278.220 120.964,278.000 99.400 C 277.776 77.489,277.891 78.344,274.775 75.297 C 272.019 72.602,280.358 72.797,169.029 72.832 C 82.558 72.859,67.970 72.945,66.585 73.437 M271.400 74.551 C 276.912 77.150,276.962 77.375,277.200 100.271 C 277.424 121.841,277.240 120.552,280.396 122.700 L 281.718 123.600 300.559 123.604 L 319.400 123.608 321.400 124.551 C 323.707 125.639,324.751 126.680,326.063 129.200 L 327.000 131.000 327.106 168.729 C 327.207 204.846,327.180 206.530,326.464 208.149 C 325.373 210.615,323.287 212.796,321.003 213.859 L 319.000 214.792 300.359 214.796 L 281.718 214.800 280.369 215.710 C 279.626 216.210,278.610 217.226,278.110 217.969 L 277.200 219.318 277.200 244.200 L 277.200 269.082 278.110 270.431 C 278.610 271.174,279.626 272.190,280.369 272.690 L 281.718 273.600 306.795 273.600 L 331.872 273.600 334.378 274.852 C 337.038 276.182,338.794 278.303,339.633 281.200 C 339.898 282.115,339.997 295.590,339.919 320.063 L 339.800 357.525 338.200 359.851 C 336.940 361.683,336.061 362.456,334.065 363.488 L 331.530 364.800 294.200 364.800 L 256.870 364.800 254.335 363.488 C 252.339 362.456,251.460 361.683,250.200 359.851 L 248.600 357.526 248.400 331.992 C 248.176 303.340,248.414 305.485,245.204 303.300 L 243.882 302.400 225.405 302.400 L 206.928 302.400 204.458 301.166 C 198.561 298.219,198.419 297.614,198.409 275.359 L 198.400 256.918 197.490 255.569 C 196.990 254.826,195.974 253.810,195.231 253.310 L 193.882 252.400 175.400 252.400 L 156.918 252.400 155.596 253.300 C 152.298 255.545,152.625 250.038,152.400 306.992 L 152.200 357.525 150.600 359.851 C 149.340 361.683,148.461 362.456,146.465 363.488 L 143.930 364.800 106.600 364.800 L 69.270 364.800 66.735 363.488 C 64.738 362.456,63.860 361.683,62.600 359.851 L 61.000 357.525 60.883 220.062 C 60.805 128.579,60.901 82.132,61.169 81.200 C 62.002 78.307,63.760 76.182,66.422 74.852 L 68.928 73.600 169.164 73.604 L 269.400 73.608 271.400 74.551 M155.569 153.310 C 152.395 155.448,152.400 155.424,152.400 169.200 C 152.400 182.976,152.395 182.952,155.569 185.090 L 156.918 186.000 200.400 186.000 L 243.882 186.000 245.231 185.090 C 248.405 182.952,248.400 182.976,248.400 169.200 C 248.400 155.424,248.405 155.448,245.231 153.310 L 243.882 152.400 200.400 152.400 L 156.918 152.400 155.569 153.310 M244.872 154.128 C 247.407 155.848,247.400 155.808,247.400 169.200 C 247.400 182.592,247.407 182.552,244.872 184.272 C 243.204 185.404,157.596 185.404,155.928 184.272 C 153.447 182.588,153.412 182.406,153.273 170.600 C 153.105 156.397,153.620 154.196,157.283 153.481 C 160.662 152.821,243.852 153.435,244.872 154.128 " stroke="none" fill="#208480" fill-rule="evenodd"></path><path id="path5" d="" stroke="none" fill="#200484" fill-rule="evenodd"></path><path id="path6" d="M67.736 70.410 C 61.898 71.025,59.701 72.316,58.475 75.852 C 57.649 78.234,57.193 354.067,58.006 359.378 C 58.846 364.865,59.941 366.252,64.405 367.484 C 68.400 368.586,144.800 368.586,148.795 367.484 C 156.282 365.418,155.753 369.842,155.904 308.024 C 155.992 272.101,156.157 256.892,156.463 256.524 C 157.085 255.775,193.697 255.752,194.316 256.500 C 194.583 256.823,194.790 263.998,194.900 276.800 C 195.167 307.998,192.797 305.634,224.080 305.901 C 238.742 306.025,244.063 306.194,244.354 306.544 C 244.599 306.840,244.803 316.781,244.897 333.009 C 245.088 366.106,244.972 365.543,252.005 367.484 C 256.000 368.586,332.400 368.586,336.395 367.484 C 343.416 365.547,343.200 367.073,343.200 319.377 C 343.200 271.621,343.375 272.907,336.600 270.946 C 334.457 270.326,331.390 270.235,308.007 270.097 C 290.505 269.994,281.645 269.803,281.307 269.522 C 280.589 268.927,280.563 219.597,281.280 218.880 C 281.638 218.522,286.172 218.398,299.180 218.393 C 326.229 218.382,327.965 217.987,329.873 211.400 C 330.722 208.471,331.194 138.529,330.417 130.807 C 329.374 120.442,329.178 120.369,301.800 120.115 C 289.858 120.005,281.612 119.775,281.335 119.545 C 280.997 119.265,280.819 113.661,280.685 99.080 C 280.434 71.798,280.311 71.456,270.400 70.413 C 265.923 69.943,72.205 69.940,67.736 70.410 M271.671 73.418 C 273.775 74.135,275.699 75.876,276.932 78.179 C 277.780 79.763,277.805 80.248,278.000 99.400 C 278.267 125.565,275.235 122.533,301.400 122.800 C 324.685 123.038,324.414 122.976,327.054 128.600 L 327.992 130.600 327.996 169.116 C 328.000 207.629,328.000 207.632,327.148 209.316 C 325.743 212.092,324.843 213.141,322.874 214.298 L 321.000 215.400 301.400 215.600 C 279.836 215.820,280.701 215.715,278.928 218.328 C 277.801 219.987,277.801 268.413,278.928 270.072 C 280.733 272.732,279.132 272.579,307.600 272.800 C 335.827 273.019,334.576 272.909,337.557 275.423 C 338.304 276.052,339.337 277.475,339.853 278.584 L 340.792 280.600 340.792 319.000 L 340.792 357.400 339.845 359.400 C 338.699 361.820,336.816 363.676,334.400 364.769 C 332.630 365.569,331.961 365.582,294.200 365.582 C 251.136 365.582,254.110 365.782,250.865 362.677 C 247.635 359.587,247.825 361.337,247.600 332.600 C 247.413 308.697,247.352 306.929,246.672 305.928 C 244.900 303.317,245.742 303.420,224.400 303.200 C 202.680 302.976,203.511 303.090,200.545 299.935 C 197.699 296.908,197.822 297.888,197.600 276.400 C 197.380 255.058,197.483 255.900,194.872 254.128 C 193.220 253.006,157.580 253.006,155.928 254.128 C 153.192 255.985,153.422 251.486,153.200 307.600 L 153.000 358.200 152.135 359.800 C 150.986 361.926,149.003 363.772,146.800 364.769 C 143.975 366.046,69.225 366.046,66.400 364.769 C 64.076 363.718,62.173 361.878,60.964 359.513 L 60.000 357.627 60.004 219.113 L 60.008 80.600 60.952 78.572 C 62.023 76.272,64.208 74.281,66.585 73.437 C 69.128 72.534,269.023 72.516,271.671 73.418 M157.283 153.481 C 153.620 154.196,153.105 156.397,153.273 170.600 C 153.412 182.406,153.447 182.588,155.928 184.272 C 157.596 185.404,243.204 185.404,244.872 184.272 C 247.407 182.552,247.400 182.592,247.400 169.200 C 247.400 155.808,247.407 155.848,244.872 154.128 C 243.852 153.435,160.662 152.821,157.283 153.481 M244.320 156.480 C 245.006 157.166,245.006 181.234,244.320 181.920 C 243.623 182.617,157.177 182.617,156.480 181.920 C 155.794 181.234,155.794 157.166,156.480 156.480 C 157.177 155.783,243.623 155.783,244.320 156.480 " stroke="none" fill="#240404" fill-rule="evenodd"></path></g></svg>